<?xml version="1.0" encoding="UTF-8"?>
<svg version="1.1" xmlns="http://www.w3.org/2000/svg" width="32" height="32">
<path d="M0 0 C4.23301121 2.82200747 7.17159664 5.95228992 8.8125 10.875 C9.18076224 16.49099916 9.02806007 20.05165989 5.8125 24.875 C2.03530245 28.60183492 -1.06728268 31.01540373 -6.4375 31.125 C-12.23305372 31.04141028 -15.62810264 29.22647772 -20 25.4375 C-23.46045453 21.38382469 -23.53693169 17.31142503 -23.46875 12.12109375 C-22.87573365 7.38519927 -20.03235144 4.63742691 -16.625 1.5625 C-11.43239458 -2.03238068 -5.78482046 -2.04170134 0 0 Z M-18.5625 8.625 C-20.01149408 13.84137867 -19.88803657 17.52396519 -17.4375 22.25 C-14.0413211 26.21220871 -12.52971819 26.74510792 -7.3125 27.25 C-2.99964034 27.13735068 -0.48470929 25.70117939 2.8125 22.875 C5.16031141 19.88687638 5.23075081 16.65588812 5.1328125 12.90625 C4.49029482 8.83174762 2.24107538 5.99745209 -0.9375 3.5 C-8.11634361 1.50587677 -13.80577049 2.57098063 -18.5625 8.625 Z " fill="#9FFFD3" transform="translate(23.1875,1.125)"/>
<path d="M0 0 C0.99 0.33 1.98 0.66 3 1 C2.0195412 3.58484592 1.06077857 4.94843031 -1.0625 6.75 C-5.0896625 8.46368617 -8.68520104 8.2538117 -13 8 C-12.67 6.68 -12.34 5.36 -12 4 C-11.38511719 3.87882812 -10.77023438 3.75765625 -10.13671875 3.6328125 C-9.32847656 3.46523438 -8.52023438 3.29765625 -7.6875 3.125 C-6.88699219 2.96257813 -6.08648437 2.80015625 -5.26171875 2.6328125 C-2.74698882 2.05521001 -2.74698882 2.05521001 0 0 Z " fill="#9FFFF5" transform="translate(25,24)"/>
<path d="M0 0 C2.64662605 0.15123577 4.44278494 0.50001243 6.4453125 2.296875 C10 6.4 10 6.4 10 10 C8 9 8 9 7 7 C5.515 6.319375 5.515 6.319375 4 5.625 C1 4 1 4 0.125 1.8125 C0.08375 1.214375 0.0425 0.61625 0 0 Z " fill="#9FFFF3" transform="translate(21,2)"/>
<path d="M0 0 C-0.78345715 1.17219543 -1.57702836 2.33763668 -2.375 3.5 C-2.81585937 4.1496875 -3.25671875 4.799375 -3.7109375 5.46875 C-4.13632813 5.9740625 -4.56171875 6.479375 -5 7 C-5.66 7 -6.32 7 -7 7 C-7 7.66 -7 8.32 -7 9 C-7.66 9 -8.32 9 -9 9 C-8.125 3.25 -8.125 3.25 -7 1 C-2.44155844 -1.22077922 -2.44155844 -1.22077922 0 0 Z " fill="#9FFFF1" transform="translate(9,6)"/>
<path d="M0 0 C1.65 0 3.3 0 5 0 C5 0.33 5 0.66 5 1 C3.35 1 1.7 1 0 1 C0 0.67 0 0.34 0 0 Z " fill="#FFAA9F" transform="translate(14,22)"/>
<path d="M0 0 C0.33 0 0.66 0 1 0 C1 1.65 1 3.3 1 5 C0.67 5 0.34 5 0 5 C0 3.35 0 1.7 0 0 Z " fill="#FFAA9F" transform="translate(22,14)"/>
<path d="M0 0 C0.33 0 0.66 0 1 0 C1 1.65 1 3.3 1 5 C0.67 5 0.34 5 0 5 C0 3.35 0 1.7 0 0 Z " fill="#FFAA9F" transform="translate(10,14)"/>
<path d="M0 0 C1.65 0 3.3 0 5 0 C5 0.33 5 0.66 5 1 C3.35 1 1.7 1 0 1 C0 0.67 0 0.34 0 0 Z " fill="#FFAA9F" transform="translate(14,10)"/>
<path d="" fill="#FFAA9F" transform="translate(0,0)"/>
<path d="" fill="#FFAA9F" transform="translate(0,0)"/>
<path d="" fill="#FFAA9F" transform="translate(0,0)"/>
<path d="" fill="#FFAA9F" transform="translate(0,0)"/>
<path d="" fill="#FFAA9F" transform="translate(0,0)"/>
<path d="" fill="#FFAA9F" transform="translate(0,0)"/>
<path d="" fill="#FFAA9F" transform="translate(0,0)"/>
<path d="" fill="#FFAA9F" transform="translate(0,0)"/>
<path d="" fill="#FFAA9F" transform="translate(0,0)"/>
<path d="" fill="#FFAA9F" transform="translate(0,0)"/>
<path d="" fill="#FFAA9F" transform="translate(0,0)"/>
<path d="" fill="#FFAA9F" transform="translate(0,0)"/>
</svg>
